PathFileType	4	(X/Y/Z)	C:/Users/opensim2020/Desktop/walking_exp_matlab/subject06_walking18_straight_04.trc	
DataRate	CameraRate	NumFrames	NumMarkers	Units	OrigDataRate	OrigDataStartFrame	OrigNumFrames	
100.00	100.00	5	47	mm	100.00	4776	409	
Frame#	Time	LFHD			RFHD			LBHD			RBHD			C7			T10			CLAV			STRN			RBAK			LSHO			LUPA			LELB			LFRM			LWRA			LWRB			LFIN			RSHO			RUPA			RELB			RFRM			RWRA			RWRB			RFIN			LASI			RASI			LPSI			RPSI			LTHI			LKNE			LTIB			LANK			LHEE			LTOE			RTHI			RKNE			RTIB			RANK			RHEE			RTOE			*39			*40			*41			*42			*43			*44			*45			*46			
		X1	Y1	Z1	X2	Y2	Z2	X3	Y3	Z3	X4	Y4	Z4	X5	Y5	Z5	X6	Y6	Z6	X7	Y7	Z7	X8	Y8	Z8	X9	Y9	Z9	X10	Y10	Z10	X11	Y11	Z11	X12	Y12	Z12	X13	Y13	Z13	X14	Y14	Z14	X15	Y15	Z15	X16	Y16	Z16	X17	Y17	Z17	X18	Y18	Z18	X19	Y19	Z19	X20	Y20	Z20	X21	Y21	Z21	X22	Y22	Z22	X23	Y23	Z23	X24	Y24	Z24	X25	Y25	Z25	X26	Y26	Z26	X27	Y27	Z27	X28	Y28	Z28	X29	Y29	Z29	X30	Y30	Z30	X31	Y31	Z31	X32	Y32	Z32	X33	Y33	Z33	X34	Y34	Z34	X35	Y35	Z35	X36	Y36	Z36	X37	Y37	Z37	X38	Y38	Z38	X39	Y39	Z39	X40	Y40	Z40	X41	Y41	Z41	X42	Y42	Z42	X43	Y43	Z43	X44	Y44	Z44	X45	Y45	Z45	X46	Y46	Z46	X47	Y47	Z47	

256	2.550	-904.16199	-308.67590	1665.31689	-1035.58850	-307.01077	1655.07629	-902.29462	-174.67841	1613.15466	-1031.39856	-175.45726	1608.06653	-958.69135	-170.34927	1455.25232	-965.52124	-136.64842	1125.63550	-962.28119	-278.66846	1377.87805	-959.12799	-318.30273	1201.85791	-1038.14197	-95.35088	1284.66907	-799.35779	-229.20407	1407.25732	-726.19434	-257.63361	1207.02344	-713.43970	-282.03232	1096.31201	-704.55981	-373.80121	975.66901	-756.52942	-481.31247	914.56927	-725.00677	-433.55423	873.02710	-730.80865	-510.98953	827.04901	-1122.43945	-231.01427	1410.78174	-1210.71338	-190.90660	1213.27539	-1225.71008	-199.16508	1092.12341	-1246.24463	-220.55179	974.49188	-1220.73242	-292.12247	839.80450	-1257.93945	-236.06900	838.06537	-1263.42480	-277.71603	764.61981	-870.39502	-317.93048	960.64252	-1090.77258	-304.95450	973.89752	-888.56104	-160.66660	992.97681	-1056.64282	-154.41589	997.39575	-819.36627	-235.48595	647.31555	-841.90472	-217.09451	484.15790	-857.35651	-160.38907	233.39842	-907.49377	-140.16397	63.45261	-951.16248	-96.72975	51.53408	-918.30817	-284.67438	35.51293	-1158.99182	-302.06656	645.52649	-1133.60303	-348.12961	527.75250	-1136.57397	-326.52838	266.63181	-1099.94165	-328.04602	79.10303	-1052.71252	-292.72021	52.20294	-1103.27930	-481.87946	44.14597	-961.79523	-208.58658	1705.59961																					 
257	2.560	-904.48138	-314.31104	1664.81995	-1035.94629	-312.59058	1654.41028	-902.59906	-180.19485	1612.76709	-1031.58337	-180.93225	1607.53162	-958.56433	-176.00101	1454.74414	-965.62573	-142.08592	1125.06384	-962.31519	-284.13406	1377.35168	-958.95227	-323.64810	1201.30212	-1038.30969	-100.82079	1284.21533	-799.41138	-234.65758	1406.85608	-726.63770	-262.43134	1206.39026	-713.89142	-287.04507	1095.72717	-705.94360	-380.15103	976.14868	-758.42352	-488.54199	917.02759	-727.73517	-441.15738	874.58337	-733.87854	-519.42078	829.58478	-1122.53088	-236.67699	1410.12549	-1210.88757	-196.52718	1212.65540	-1225.84229	-204.47040	1091.51428	-1246.52002	-225.47652	973.83954	-1221.08057	-296.55978	838.84650	-1258.38684	-240.48013	837.38354	-1263.82629	-281.88507	763.73627	-870.02527	-323.06616	959.99377	-1090.51831	-310.56381	973.23193	-888.30804	-165.67729	992.55658	-1056.50781	-159.89905	996.75720	-819.45721	-239.74269	646.84045	-841.84015	-220.51376	483.68906	-857.25464	-162.03632	233.21216	-907.56030	-140.37236	63.47543	-951.19635	-96.87611	51.72004	-918.32837	-284.78455	35.35700	-1158.89404	-306.93710	644.60712	-1132.93884	-352.93527	527.19592	-1136.55261	-338.81180	265.64526	-1099.83032	-347.00702	77.95036	-1053.18506	-312.91669	50.02151	-1101.67029	-501.91818	45.83107	-962.16864	-214.23119	1705.07446																					 
258	2.570	-904.89148	-319.93671	1664.20398	-1036.29761	-318.28732	1653.72437	-902.94287	-185.77135	1612.33032	-1031.91528	-186.58138	1606.95166	-959.00519	-181.36388	1454.13330	-965.75665	-147.56258	1124.42651	-962.38123	-289.63251	1376.74890	-958.82227	-329.10269	1200.71167	-1038.52173	-106.34795	1283.52502	-799.53986	-240.04445	1406.41650	-726.91870	-267.72165	1205.84143	-714.44391	-292.40259	1095.18347	-707.29584	-386.50357	976.46979	-760.37134	-495.53259	919.33124	-730.17078	-448.71719	875.92029	-736.91809	-527.44556	831.83783	-1122.68250	-242.41533	1409.37000	-1211.22034	-202.36264	1211.99536	-1226.04724	-209.76555	1090.84241	-1246.76282	-230.51137	973.10846	-1221.44165	-301.11557	837.84839	-1258.78369	-245.09735	836.62433	-1264.16577	-286.31586	762.83447	-869.63635	-328.27072	959.33112	-1090.25928	-316.26657	972.55286	-888.28424	-170.92374	991.88013	-1056.47034	-165.52240	996.09436	-819.02502	-244.03307	646.31641	-841.81543	-223.87486	483.19080	-857.10675	-163.60925	233.03676	-907.62830	-140.60658	63.53870	-951.26324	-97.01115	51.92926	-918.36005	-284.89267	35.24619	-1158.98352	-312.02686	643.91302	-1132.22095	-357.69223	526.62921	-1136.49207	-350.76172	264.78503	-1100.01294	-365.16556	77.35102	-1053.22693	-331.67999	48.94255	-1100.29187	-521.25500	48.06723	-962.56848	-219.91589	1704.54346																					 
259	2.580	-905.28308	-325.65848	1663.56763	-1036.71143	-323.91620	1652.97375	-903.37885	-191.43681	1611.87915	-1032.39905	-192.18956	1606.41125	-959.32062	-186.85719	1453.61792	-965.84619	-153.10669	1123.77039	-962.55597	-295.18161	1376.13477	-958.78137	-334.57825	1200.09375	-1038.73291	-111.98907	1282.82739	-799.71698	-245.55110	1405.91199	-727.11542	-273.31982	1205.41309	-714.94519	-297.35898	1094.54590	-708.74274	-392.70267	976.75189	-762.31750	-502.36148	921.41016	-732.70691	-456.09198	877.16113	-739.86224	-535.36865	833.92572	-1122.92480	-248.08809	1408.62085	-1211.34448	-207.86295	1211.26440	-1226.28967	-215.15868	1090.10864	-1247.06995	-235.52287	972.31720	-1221.85522	-305.87781	836.89282	-1259.17407	-249.79277	835.79510	-1264.67908	-290.74060	761.86334	-869.25824	-333.51526	958.67169	-1089.93567	-322.26328	971.86627	-888.33081	-176.23755	991.26825	-1056.54810	-171.33623	995.40192	-818.95355	-248.25841	645.76740	-841.75995	-227.34319	482.71014	-856.91449	-165.11499	232.95264	-907.69464	-140.85103	63.62090	-951.32269	-97.11918	52.16995	-918.36646	-284.95551	35.09488	-1159.08875	-317.32715	643.16083	-1131.38525	-362.55377	526.03076	-1136.44873	-362.39929	263.98441	-1100.18982	-382.38226	77.13705	-1053.62256	-349.17767	48.43005	-1099.29102	-539.82825	50.83279	-963.02802	-225.71910	1703.97241																					 
260	2.590	-905.77350	-331.45953	1662.90564	-1037.13843	-329.68118	1652.19153	-904.00775	-197.07861	1611.51318	-1033.17200	-197.43109	1605.87842	-959.72546	-192.48267	1453.02295	-966.19977	-158.59854	1123.13538	-962.75031	-300.79092	1375.46814	-958.74384	-340.16605	1199.45264	-1038.95215	-117.65527	1282.06689	-799.97614	-251.13774	1405.38086	-727.66675	-278.58185	1204.72791	-715.55566	-302.67029	1093.90894	-710.09906	-398.94592	977.03217	-764.27313	-509.09454	923.31915	-734.89368	-463.31406	878.34479	-742.91486	-542.80713	835.75189	-1123.23438	-253.73189	1407.80688	-1211.41443	-213.17525	1210.38184	-1226.54944	-220.56563	1089.31140	-1247.41455	-240.64894	971.48981	-1222.30908	-310.65616	835.85333	-1259.54834	-254.60741	834.94275	-1265.16101	-295.38208	760.94324	-868.89404	-338.79755	957.97833	-1089.67004	-328.30600	971.10748	-888.38971	-181.46631	990.72406	-1056.69495	-177.21207	994.73859	-818.90289	-252.53133	645.27576	-841.75562	-230.78795	482.24564	-856.64514	-166.66341	232.80368	-907.74933	-141.08629	63.68899	-951.09619	-98.05622	51.87174	-918.25702	-285.24625	35.04049	-1159.08850	-322.88214	642.42285	-1130.87097	-367.26157	525.31946	-1136.34875	-373.67050	263.31226	-1099.99646	-399.72888	76.98366	-1053.62280	-366.92194	47.81077	-1098.54321	-557.78967	54.06301	-963.52777	-231.53131	1703.37964																					 
